<?xml version="1.0" ?><svg enable-background="new 0 0 144 144" id="Layer_1" version="1.1" viewBox="0 0 144 144" xml:space="preserve" xmlns="http://www.w3.org/2000/svg" xmlns:xlink="http://www.w3.org/1999/xlink"><g><path d="M121.886,128.937   l-58.071,0.021c-4.333,0-7.878-3.545-7.878-7.878l-0.006-2.076" fill="none" stroke="#3D6CB4" stroke-linecap="round" stroke-linejoin="round" stroke-miterlimit="10"/><path d="M55.936,78.536   V19.233c0-4.333,3.545-7.878,7.878-7.878h69.011c4.333,0,7.878,3.545,7.878,7.878V121.08c0,4.333-3.545,7.878-7.878,7.878h-3.352" fill="none" stroke="#3D6CB4" stroke-linecap="round" stroke-linejoin="round" stroke-miterlimit="10"/><path d="M55.936,24.723v-5.49c0-4.333,3.545-7.878,7.878-7.878h69.011   c4.333,0,7.878,3.545,7.878,7.878v5.49H55.936z" fill="#528AC8" opacity="0.3"/><path d="M55.936,24.723   v-5.49c0-4.333,3.545-7.878,7.878-7.878h69.011c4.333,0,7.878,3.545,7.878,7.878v5.49H55.936z" fill="none" stroke="#3D6CB4" stroke-linecap="round" stroke-linejoin="round" stroke-miterlimit="10"/><line fill="none" stroke="#3D6CB4" stroke-linecap="round" stroke-linejoin="round" stroke-miterlimit="10" x1="65.36" x2="127.36" y1="39.555" y2="39.555"/><line fill="none" stroke="#3D6CB4" stroke-linecap="round" stroke-linejoin="round" stroke-miterlimit="10" x1="65.36" x2="108.36" y1="65.555" y2="65.555"/><line fill="none" stroke="#3D6CB4" stroke-linecap="round" stroke-linejoin="round" stroke-miterlimit="10" x1="65.36" x2="114.36" y1="53.555" y2="53.555"/><g><polygon fill="none" points="    129.476,133.715 121.887,133.715 121.887,73.01 125.682,65.589 129.476,73.01   " stroke="#3D6CB4" stroke-linecap="round" stroke-linejoin="round" stroke-miterlimit="10"/><line fill="none" stroke="#3D6CB4" stroke-linecap="round" stroke-linejoin="round" stroke-miterlimit="10" x1="121.887" x2="129.476" y1="74.349" y2="74.349"/><line fill="none" stroke="#3D6CB4" stroke-linecap="round" stroke-linejoin="round" stroke-miterlimit="10" x1="121.887" x2="129.476" y1="125.234" y2="125.234"/><line fill="none" stroke="#3D6CB4" stroke-linecap="round" stroke-linejoin="round" stroke-miterlimit="10" x1="121.887" x2="129.476" y1="119.878" y2="119.878"/></g><rect fill="#528AC8" height="5.356" opacity="0.3" width="7.588" x="121.887" y="119.878"/><g><line fill="none" stroke="#3D6CB4" stroke-linecap="round" stroke-linejoin="round" stroke-miterlimit="10" x1="121.887" x2="129.476" y1="74.349" y2="74.349"/><polygon fill="none" points="    129.476,133.715 121.887,133.715 121.887,73.01 125.682,65.589 129.476,73.01   " stroke="#3D6CB4" stroke-linecap="round" stroke-linejoin="round" stroke-miterlimit="10"/><line fill="none" stroke="#3D6CB4" stroke-linecap="round" stroke-linejoin="round" stroke-miterlimit="10" x1="121.887" x2="129.476" y1="125.234" y2="125.234"/><line fill="none" stroke="#3D6CB4" stroke-linecap="round" stroke-linejoin="round" stroke-miterlimit="10" x1="121.887" x2="129.476" y1="119.878" y2="119.878"/></g><g><polygon fill="#528AC8" opacity="0.3" points="129.476,74.349 121.887,74.349 121.887,73.01 125.682,65.589 129.476,73.01   "/><line fill="none" stroke="#3D6CB4" stroke-linecap="round" stroke-linejoin="round" stroke-miterlimit="10" x1="121.887" x2="129.476" y1="74.349" y2="74.349"/><line fill="none" stroke="#3D6CB4" stroke-linecap="round" stroke-linejoin="round" stroke-miterlimit="10" x1="121.887" x2="129.476" y1="125.234" y2="125.234"/><line fill="none" stroke="#3D6CB4" stroke-linecap="round" stroke-linejoin="round" stroke-miterlimit="10" x1="121.887" x2="129.476" y1="119.878" y2="119.878"/></g><g><line fill="none" stroke="#3D6CB4" stroke-linecap="round" stroke-linejoin="round" stroke-miterlimit="10" x1="39.458" x2="39.458" y1="54.136" y2="61.561"/><line fill="none" stroke="#3D6CB4" stroke-linecap="round" stroke-linejoin="round" stroke-miterlimit="10" x1="43.17" x2="35.746" y1="57.849" y2="57.849"/></g><g><line fill="none" stroke="#3D6CB4" stroke-linecap="round" stroke-linejoin="round" stroke-miterlimit="10" x1="27.709" x2="27.709" y1="23.785" y2="36.187"/><line fill="none" stroke="#3D6CB4" stroke-linecap="round" stroke-linejoin="round" stroke-miterlimit="10" x1="33.91" x2="21.508" y1="29.986" y2="29.986"/></g><g><rect fill="none" height="40.462" stroke="#3D6CB4" stroke-linecap="round" stroke-linejoin="round" stroke-miterlimit="10" width="73.645" x="4.546" y="78.541"/><g><rect fill="#528AC8" height="22.8" opacity="0.3" width="19.053" x="12.253" y="87.33"/><rect fill="none" height="22.8" stroke="#3D6CB4" stroke-linecap="round" stroke-linejoin="round" stroke-miterlimit="10" width="19.053" x="12.253" y="87.33"/></g><g><g><line fill="none" stroke="#3D6CB4" stroke-linecap="round" stroke-linejoin="round" stroke-miterlimit="10" x1="40.36" x2="71.36" y1="88.555" y2="88.555"/><line fill="none" stroke="#3D6CB4" stroke-linecap="round" stroke-linejoin="round" stroke-miterlimit="10" x1="40.36" x2="61.36" y1="96.555" y2="96.555"/></g><g><circle cx="42.769" cy="106.771" fill="none" r="2.257" stroke="#3D6CB4" stroke-linecap="round" stroke-linejoin="round" stroke-miterlimit="10"/><circle cx="53.045" cy="106.771" fill="none" r="2.257" stroke="#3D6CB4" stroke-linecap="round" stroke-linejoin="round" stroke-miterlimit="10"/><circle cx="63.321" cy="106.771" fill="none" r="2.257" stroke="#3D6CB4" stroke-linecap="round" stroke-linejoin="round" stroke-miterlimit="10"/></g></g></g></g><g/><g/><g/><g/><g/><g/></svg>