<?xml version="1.0" ?><svg enable-background="new 0 0 144 144" id="Layer_1" version="1.1" viewBox="0 0 144 144" xml:space="preserve" xmlns="http://www.w3.org/2000/svg" xmlns:xlink="http://www.w3.org/1999/xlink"><g><path d="M124.36,129.055h-94V74.441c-1-1.31-3.5-3.598-4.215-3.741   c-1.072-0.214-1.785,1.838-1.785,3.741v53.944c0,1.509,0.698,3.016,2.053,3.485c1.71,1.493,4.234,2.609,5.921,2.609l90.504-0.02   c1.903,0,3.435-1.245,4.785-2.604l0.757,0.696" fill="#528AC8" opacity="0.3"/><g><path d="M26.045,70.16    c-1.392,1.444-2.251,3.404-2.251,5.556v50.749c0,4.408,3.607,8.015,8.015,8.015h90.442c4.408,0,8.015-3.607,8.015-8.015V75.715    c0-2.151-0.859-4.112-2.251-5.555" fill="none" stroke="#3D6CB4" stroke-linecap="round" stroke-linejoin="round" stroke-miterlimit="10"/><line fill="none" stroke="#3D6CB4" stroke-linecap="round" stroke-linejoin="round" stroke-miterlimit="10" x1="91.621" x2="127.988" y1="100.892" y2="70.139"/><line fill="none" stroke="#3D6CB4" stroke-linecap="round" stroke-linejoin="round" stroke-miterlimit="10" x1="26.069" x2="62.341" y1="70.136" y2="100.81"/><line fill="none" stroke="#3D6CB4" stroke-linecap="round" stroke-linejoin="round" stroke-miterlimit="10" x1="32.608" x2="26.069" y1="63.599" y2="70.136"/><polyline fill="none" points="    99.073,41.227 77.03,19.186 54.965,41.247   " stroke="#3D6CB4" stroke-linecap="round" stroke-linejoin="round" stroke-miterlimit="10"/><line fill="none" stroke="#3D6CB4" stroke-linecap="round" stroke-linejoin="round" stroke-miterlimit="10" x1="127.988" x2="121.493" y1="70.139" y2="63.644"/><line fill="none" stroke="#3D6CB4" stroke-linecap="round" stroke-linejoin="round" stroke-miterlimit="10" x1="77.028" x2="25.821" y1="88.9" y2="131.778"/><line fill="none" stroke="#3D6CB4" stroke-linecap="round" stroke-linejoin="round" stroke-miterlimit="10" x1="77.028" x2="127.988" y1="88.9" y2="131.844"/></g><polyline fill="none" points="   121.453,75.666 121.568,41.227 32.608,41.227 32.608,75.666  " stroke="#3D6CB4" stroke-linecap="round" stroke-linejoin="round" stroke-miterlimit="10"/><g><ellipse cx="59.468" cy="66.892" fill="#528AC8" opacity="0.3" rx="4.479" ry="4.479" transform="matrix(0.993 -0.1177 0.1177 0.993 -7.4614 7.4661)"/><ellipse cx="59.468" cy="66.892" fill="none" rx="4.479" ry="4.479" stroke="#3D6CB4" stroke-linecap="round" stroke-linejoin="round" stroke-miterlimit="10" transform="matrix(0.993 -0.1177 0.1177 0.993 -7.4614 7.4661)"/></g><g><ellipse cx="77.838" cy="66.892" fill="#528AC8" opacity="0.3" rx="4.479" ry="4.479" transform="matrix(0.993 -0.1177 0.1177 0.993 -7.3337 9.6288)"/><ellipse cx="77.838" cy="66.892" fill="none" rx="4.479" ry="4.479" stroke="#3D6CB4" stroke-linecap="round" stroke-linejoin="round" stroke-miterlimit="10" transform="matrix(0.993 -0.1177 0.1177 0.993 -7.3337 9.6288)"/></g><g><ellipse cx="96.209" cy="66.892" fill="#528AC8" opacity="0.3" rx="4.479" ry="4.479" transform="matrix(0.993 -0.1177 0.1177 0.993 -7.2059 11.7915)"/><ellipse cx="96.209" cy="66.892" fill="none" rx="4.479" ry="4.479" stroke="#3D6CB4" stroke-linecap="round" stroke-linejoin="round" stroke-miterlimit="10" transform="matrix(0.993 -0.1177 0.1177 0.993 -7.2059 11.7915)"/></g><g><line fill="none" stroke="#3D6CB4" stroke-linecap="round" stroke-linejoin="round" stroke-miterlimit="10" x1="115.727" x2="115.727" y1="11.498" y2="23.343"/><line fill="none" stroke="#3D6CB4" stroke-linecap="round" stroke-linejoin="round" stroke-miterlimit="10" x1="121.649" x2="109.805" y1="17.421" y2="17.421"/></g><g><line fill="none" stroke="#3D6CB4" stroke-linecap="round" stroke-linejoin="round" stroke-miterlimit="10" x1="8.967" x2="8.967" y1="47.564" y2="59.408"/><line fill="none" stroke="#3D6CB4" stroke-linecap="round" stroke-linejoin="round" stroke-miterlimit="10" x1="3.045" x2="14.889" y1="53.486" y2="53.486"/></g><g><line fill="none" stroke="#3D6CB4" stroke-linecap="round" stroke-linejoin="round" stroke-miterlimit="10" x1="136.994" x2="136.994" y1="51.95" y2="59.041"/><line fill="none" stroke="#3D6CB4" stroke-linecap="round" stroke-linejoin="round" stroke-miterlimit="10" x1="140.539" x2="133.448" y1="55.496" y2="55.496"/></g></g><g/><g/><g/><g/><g/><g/></svg>